<svg xmlns="http://www.w3.org/2000/svg" width="1200" height="760" viewBox="0 0 1200 760" fill="none">
  <rect width="1200" height="760" rx="40" fill="#0F1B21"/>
  <rect x="54" y="42" width="1092" height="676" rx="28" fill="#182730"/>
  <rect x="94" y="88" width="540" height="560" rx="32" fill="#0C1216" stroke="#30424B" stroke-width="4"/>
  <rect x="300" y="104" width="128" height="16" rx="8" fill="#253943"/>
  <circle cx="563" cy="112" r="10" fill="#2F434D"/>
  <text x="140" y="158" fill="#F4FBFF" font-size="30" font-family="Arial, Helvetica, sans-serif" font-weight="700">panic-full-2023-11-02...</text>
  <text x="140" y="204" fill="#B7C8D1" font-size="22" font-family="Courier New, monospace">panicString: SMC PANIC - ASSERTION FAILED</text>
  <text x="140" y="238" fill="#B7C8D1" font-size="22" font-family="Courier New, monospace">SMC BSC failure, spreadsheet ver(*10) 65</text>
  <rect x="134" y="260" width="426" height="52" rx="14" fill="#FFE8A8"/>
  <text x="152" y="293" fill="#553A00" font-size="22" font-family="Courier New, monospace" font-weight="700">sensor array 0x41, 0x0, 0x0, 0x0</text>
  <text x="140" y="346" fill="#B7C8D1" font-size="22" font-family="Courier New, monospace">RTKit: RTKit-2419.120.95.release</text>
  <text x="140" y="380" fill="#B7C8D1" font-size="22" font-family="Courier New, monospace">OS release type: User</text>
  <text x="140" y="414" fill="#B7C8D1" font-size="22" font-family="Courier New, monospace">kernel slide: 0x0000000012400000</text>
  <path d="M670 284C744 284 792 286 840 292" stroke="#F04E4E" stroke-width="8" stroke-linecap="round"/>
  <path d="M828 292L792 268" stroke="#F04E4E" stroke-width="8" stroke-linecap="round"/>
  <path d="M828 292L794 320" stroke="#F04E4E" stroke-width="8" stroke-linecap="round"/>
  <rect x="700" y="184" width="376" height="186" rx="24" fill="#FFF7DE" stroke="#F2D699" stroke-width="3"/>
  <text x="730" y="234" fill="#513A12" font-size="32" font-family="Arial, Helvetica, sans-serif" font-weight="700">Battery data example</text>
  <text x="730" y="282" fill="#6B5429" font-size="24" font-family="Arial, Helvetica, sans-serif">0x41 / 65 usually points to</text>
  <text x="730" y="317" fill="#6B5429" font-size="24" font-family="Arial, Helvetica, sans-serif">battery data, battery connector,</text>
  <text x="730" y="352" fill="#6B5429" font-size="24" font-family="Arial, Helvetica, sans-serif">or battery data line issues.</text>
  <rect x="676" y="430" width="404" height="184" rx="24" fill="#EAF5F0" stroke="#C9E2D6" stroke-width="3"/>
  <text x="706" y="476" fill="#17372D" font-size="30" font-family="Arial, Helvetica, sans-serif" font-weight="700">First checks</text>
  <text x="706" y="520" fill="#2E4E42" font-size="22" font-family="Arial, Helvetica, sans-serif">• Test known-good battery</text>
  <text x="706" y="554" fill="#2E4E42" font-size="22" font-family="Arial, Helvetica, sans-serif">• Inspect battery connector pins</text>
  <text x="706" y="588" fill="#2E4E42" font-size="22" font-family="Arial, Helvetica, sans-serif">• Check battery data line readings</text>
  <text x="94" y="692" fill="#93A6B0" font-size="21" font-family="Arial, Helvetica, sans-serif">Reference visual based on the Repair Wiki panic log examples.</text>
</svg>
