<svg xmlns="http://www.w3.org/2000/svg" width="1200" height="760" viewBox="0 0 1200 760" fill="none">
  <rect width="1200" height="760" rx="40" fill="#F4F7F9"/>
  <rect x="68" y="54" width="1064" height="652" rx="32" fill="#FFFFFF" stroke="#DCE5E9" stroke-width="4"/>
  <rect x="112" y="104" width="978" height="476" rx="28" fill="#FCFDFF" stroke="#DCE5E9" stroke-width="3"/>
  <text x="150" y="164" fill="#16242B" font-size="28" font-family="Arial, Helvetica, sans-serif" font-weight="700">panic-full file example</text>
  <text x="150" y="214" fill="#5E7180" font-size="22" font-family="Courier New, monospace">panicString: userspace watchdog timeout</text>
  <rect x="146" y="250" width="560" height="46" rx="12" fill="#FFF0B5"/>
  <text x="164" y="280" fill="#634500" font-size="22" font-family="Courier New, monospace" font-weight="700">sensor array 0x80000, 0x0, 0x0, 0x0</text>
  <rect x="146" y="316" width="612" height="46" rx="12" fill="#FFE0E0"/>
  <text x="164" y="346" fill="#6C2424" font-size="22" font-family="Courier New, monospace" font-weight="700">sensor array 0x100000, 0x0, 0x0, 0x0</text>
  <text x="150" y="406" fill="#7B8D99" font-size="21" font-family="Courier New, monospace">Example pattern: prox flex + charging or button path</text>
  <path d="M782 270C842 248 898 230 972 208" stroke="#F04E4E" stroke-width="8" stroke-linecap="round"/>
  <path d="M968 208L928 198" stroke="#F04E4E" stroke-width="8" stroke-linecap="round"/>
  <path d="M968 208L940 240" stroke="#F04E4E" stroke-width="8" stroke-linecap="round"/>
  <path d="M786 338C850 352 902 372 970 414" stroke="#F04E4E" stroke-width="8" stroke-linecap="round"/>
  <path d="M968 414L934 384" stroke="#F04E4E" stroke-width="8" stroke-linecap="round"/>
  <path d="M968 414L924 420" stroke="#F04E4E" stroke-width="8" stroke-linecap="round"/>
  <rect x="818" y="132" width="226" height="118" rx="22" fill="#FFF8DD" stroke="#F0D79E" stroke-width="3"/>
  <text x="850" y="182" fill="#76521D" font-size="28" font-family="Arial, Helvetica, sans-serif" font-weight="700">0x80000</text>
  <text x="850" y="220" fill="#76521D" font-size="22" font-family="Arial, Helvetica, sans-serif">Commonly prox flex on newer models</text>
  <rect x="818" y="354" width="226" height="118" rx="22" fill="#FFF8DD" stroke="#F0D79E" stroke-width="3"/>
  <text x="850" y="404" fill="#76521D" font-size="28" font-family="Arial, Helvetica, sans-serif" font-weight="700">0x100000</text>
  <text x="850" y="442" fill="#76521D" font-size="22" font-family="Arial, Helvetica, sans-serif">Often button or charge-port path</text>
  <rect x="114" y="606" width="976" height="66" rx="20" fill="#EAF5F0" stroke="#C9E2D6" stroke-width="3"/>
  <text x="144" y="648" fill="#2E4E42" font-size="24" font-family="Arial, Helvetica, sans-serif">If two panic codes appear together, check both flexes and both connectors before moving to board work.</text>
</svg>
